<svg xmlns="http://www.w3.org/2000/svg" viewBox="0 0 800 800">
  <path fill="none" stroke="#000" stroke-miterlimit="10" d="M140 125.6c-1 8.6 11.5 9.6 16.8 6.4.4-7.2-10.6-9.8-16.5-6.4M302 142.4c4.7 3 15.4 1.6 19-1.8 0-4 .2-9-1.6-10.8-9.5.5-16.5 3.6-17.6 12.5m-153 1c6.2 9 16 7 30 6.3 1.5-15-14-12.8-28-12.5l-1.7 6.3m153.7 6.4c-3.2 9.6 16 12 16 3.2-3.4-5-10.4-4-16-2.5m-156.3 4c0 12.2 26.8 8.7 28.3 0-7.6-1-21.3-3-28.3 0m163.2 11c7.6 6 28 16 43.5 8-7-8.4-33.8-23.3-44-8m-195.7 8c7.5 9.5 31.2 6.5 36-5-10.7-3-32.4-7.5-36 5m226 13c11.6 7.3 26 16 42.5 7.7 1.5-9-5.6-9.2-6.4-15.6-13 1.3-34.4-5-36.3 7.8M89.6 202c-3.2 20.7 20.8 12 32.8 9.2.8-8.2-7.2-6.4-8-12.5 9.6 2 11.2-4 14.4-9.3-4.8-9.6-27.2-10.4-36-5-2.4 9.5 8.8 13 18.4 16-8.7-2-14.3-1.5-21.5 1.4m495.2-1.6c-3.2 7.8-6.4 26.3 2.4 29.8 6.5-4 5-15.7 9-22.2 14.3-12.8 49.5-5.3 70.3-12.4-25.6-5-64-8-83.2 5m-227 17.2c7.2 0 26 4 31.5-4.8-1-3.6-1.4-8-3.2-10.7-7.8-4.6-43.8-3.5-28.5 15.8m251.2 22c6.4-8 3.7-14.5 11.2-19 12.4-8 37.2 4 48.5-8-23.2-9-83.3-2.5-59.5 26.3M92.8 220.8c-.3 20 29.3 10.4 34.4 1.6-3-12.8-27.8-5.6-34.2-1.6m255.2 7.2c11.2 4 27.4 10.3 31.5-5-8-1.5-31.2-8.7-31.2 5m89.3 11l6 4c-5.5-1.5-5.5 7.3-3 9.7-5 1.6-11.3 2.4-13 8-.7 4 8-1.6 8 2.4-5.5 7.3-11 13.7-22.3 16-1.6 5.7 2.4 5 4 8-20 1.7-28.8 14.5-53.6 10.5 4 15.2 27 14.4 36 10.4 30.3-12 60-46.5 60.7-85-11.2-3-19.2 9-24 17m-334.4 4c16 8 28 0 37.6-13-10.5-4.7-33 2.5-38.5 13m228-4c8 8 17.6 16 31.2 7 2.4-15-25.6-19-31.2-8M127 252.8l1.7 4c10.4-4.8 25.6-4 28-16-9.6-12.8-23.2 4.8-29.6 11.2m-42.3 54.3c7.2.8 27.2-.8 27.2-13.6-5 .8-8 2.4-14.5 2.4.8-10.3-9.6-3-15.2-3 0-4 2.4-5.7 3.2-8-4-1.7-13.6 1.5-15.2-2.5.8-3.2 7.2 0 4.8-6.4-1.5-4.7-8-.7-12-4.7l1.7-4.8C60 264 56 263 53.5 259c4.8-1.5 1.6-2.3 1.6-6.3-5.5-1.6-13.5-2.4-9.5-8.8-4.8-3.3-9.6-8-19.2-6.5 6.4 25.6 30.4 64 59.2 67.2m256-54.4C335 241.5 327 236 311 237.5c2.5 12.8 20 25.6 29.7 12.8M252 263c8.7 2.5 10.3-3 13.5-6.3 3.2 3.2 2.4 9.6 9.6 9.6 1-7.2-4.7-9.6-4.7-16.8-9.6 1.6-18.4 3.2-19.2 13.6M8 219.3v-1.6c17.8 9.6 45.6 26.4 70.6 14-3.6-34.6 9.6-51.8 25-67.5 10-6.3 27.8-4.7 30-20-2.5-14.3-28-19-40-29.5 8 2.4 24.7.8 34.3-1.6h16c28-2.5 68 27 37.5 55-12 11.3-44 11.3-44 31.3 0 14.4 25.6 35.2 42.4 36 12.7.8 32.7-7.2 53.5-7.2 11.2 0 27.2-1.5 36.8 0 6.4 1 8.8 6.5 14.4 6.5 17.6 1.6 51.2-11.2 52.8-24.8 4-30.4-54.4-19.2-48.8-60.8 3.2-26.5 47.2-36 80-17-12.8 4-30.4 3.3-38.4 13 2.4 22.3 32 16.7 48.8 24.7 17 17.6 19.3 47.2 10.5 76 40-.8 48-32.8 78.4-44-1.7 24.8-8 52-11.3 68.8 38.4 6.2 98.6 7 123.3 1s109-14.5 134.5-5c13 4.8 19.8 12.5 25 22.2 8.8 16.8 6 40 20.4 49.6 7.5-13.4 21.6-29.6 17-44.8C766.7 258.2 714 237 671 249.2c-56.6 15.8-75.2 12.7-85.3 8.3s-19.7-6-22.4-16.6c-4.7-19.3 2.5-46.5 16-53.7 25.7-12.8 83.3.8 117.7-1.6 2.4 10.4 2.4 24 0 35.2-32 4.7-100.7 10.7-74 26.5 22.8 13.3 98.8-43.5 157.2 23.8 4.7 8 6.3 16 9.5 28.8v8H788c-1 30.5-27.3 47.3-28 84-2.5 92-3.3 213-19.3 299.3h-20C688 684 654.3 685 618.3 681c-.8-10.5.8-17.7 1.6-26.5-13.7-2.4-31.3-.8-41-7.2 9.7-36.8 15.3-76.8-16-91.2-22.3-10.3-76.7-12.7-108.7-9.5-51.2 4-89.6 25.6-110.4 57.6-12 17.7-13.7 39.3-24 56-34.5-3-70.5-3-106.5-4-3.2-8 5.6-17.5-2.4-19-30.3 0-61.5 0-88-5 8-15 16-31 25-50.3 6.3-12.8 24-36 18.3-54.4-4-15.2-26.4-17.6-29.6-31.2-6.4-24 22.4-36.7 20-64-1.6-19-24.8-34.3-34.4-56.7-8-19.2-6.4-32.8-9.6-56-65.5 8.7-89.5-48-106.3-99.3M236 272.7c3-4.8-1.7-11.2 0-19.2h-4c-5 4.8-6.5 20.8 4 19.2m-18.5-4c2.4-6.4-4-10.4-9.6-12.8-4 6.3 4 16 9.5 12m28 12c3.2 3 20 5.5 22.4 0-1-9-21.7-11.3-21.7 0m-44-3.3c0 10.4 12 9.6 18.4 6.4 0-12-12-10.3-19.2-6.3m28 32.8c14.4 4 11.2-21.6 3.2-21.6-1.6 6.3-3.2 12.7-3.2 21.5m-20.8-16c-.8 4.8 1.6 4.8 1.6 8 6.4 0 10.4-1.6 9.6-9.6-4-4-6.5 2.3-11.3 1.5m48.8 8c.8-4-1.6-6.4-4.8-7.2-1.6 1.6-.8 9.6 4.8 8m23.2-6.4c-16.8 7-36.8 29.5-39.2 54.3-.8 9.6 2.4 32.8 12.8 28C239 336.7 268 315 284.7 295h-4M199 336c-4-20-19-28-40.7-29.7 12 12 24.8 21.6 40.8 29.6m9.7 52c-4.8 6.3-14.4 4.7-16 16.7 42.4-2.4 40.8-96-4.8-99.2 16.7 20 42.3 51.2 20.7 81.6m54.4-45.5c13-8.8 21.7-20.8 29-34.4-19.3 1.7-27.3 15.3-29 34.5m75.3 20c-1.6 4.8-14.4 24.8-17.6 28.8-4.8 5.6-12 5.6-14.4 12.8-2.4 7.3-2.4 17.7 1.6 25 8-3.3 7-16 11-23.3 24-12.8 37-50.4 26.5-88h-4c-5.6 20.8.8 31.2-4 45.6m-34.4-8c9-5.6 13-16.8 14.5-30.4-16 .7-30.4 20.7-14.4 31m-152-25.5c1 9.6 5.7 14.4 8 22.4 11.3 2.3 10.5-7.3 14.5-12-7.2-3.3-16-21.7-22.4-9.7m488 44c3.3-7.2-4-12.8-3-20 0-11.2 8.7-14.4 11-24.8-25.5-7.2-28.7 39.2-8 44.8m13.7-8.8c4-15.2 13.6-24.8 29.6-28-19.2-17.6-52 13.6-30.4 28m-121.7-31.2c-4.8 9.6-4.8 27.2-1.6 37.6 15.2 0 10.4-31.3 6.4-39.3l-4.7 1.6m-132 15.2c15.2 4.8 25.6 19.2 20 40.8 18.4-4 12.8-34.4 3.2-42.4-8 .7-20-5.7-24 1.5m115.2 16c0-11.2-4.8-18.4-16.8-16.8.7 10.4 5.5 16.8 16.7 16.8M552 363c6.3 0 8.7-4 12.7-5.5V348c-8 0-13.6 4-12 14.3m87.2 20c-16-3.2-31.3-13.6-25-34.4-32 10.3 6.5 60 25 34.3m24-14.4c14.3-9 34.3-7.3 48.7 0 .8-27.3-48-22.5-48.8 0m-301.7 6.3c10.4 4.8 14.4-9.6 26.4-8 5.6 4.8 9.6 12 17.6 15.2 5.6-31.2-41.6-35.2-43.2-8m-158.3-3.2l-4.8-12.8c-19.3-2.4-8 20 4.7 12m64 1.6c4 2.5 11.2-2.3 14.4-6.3l-1.5-4.8c-7.2-5-14.4.7-12 10.3m180 16c-4.8 5.6-12 8.8-13.6 17.6 28.7 4 33.5-41 9.5-45.7-5.6 10.4 8.8 13.6 4.8 28m39.2-11.2c4 8 26.4 13.7 30.4 1-7.3-2.5-24-13-29.7-1.7M547 379c4 11.3 26.5 7.3 31.3 0-4-10.3-27.2-12-31.2 0m130.5-4c8.8 8 20 2.5 28.8 8 9.6 5.7 4 18.5 16 21.7 10.4-27.2-23.2-44-44.8-29.6M375 381.6c1-4 5-4.8 5-9.6-5-1-9 6.3-5 9.5M364 416c4-8 2.3-20 11-24h23.3c-9.6-28-59.2 2.3-34.4 23m278.3-23c-16.8 6.3-38.4 3-45.6-8-12 33.5 45.6 30.3 44.8 8M435 415c14.5 25.7 62.5-6.3 37.7-28.7-4 17.6-15.2 28.8-37.6 28m259.3-1.6c1.6 8-5.6 14.4 1.6 20.8 16-10.4 6.3-45.6-14.5-44-3.2 8.8 9.6 13.6 12 24M535 428.7c5-8 9-25.6 3.3-36-16.8-2.4-14.4 33.6-4 36M504.7 415c5.6-.7 5.6-5.5 11.2-6.3 4-20.8-18.5-4-11.3 6.4m46.4-14.3c2.5 5.6 3.3 12 13 11.2-1.7-9-3.3-13.7-12-11.3m109.5 36c-6.4 0-16 3.2-12.8 7.2 26.4 8.7 44-31.3 18.4-44 0 9.5 0 28.7-6.3 36m-51.2-12c6.4 25.5 51.2 8.7 46.4-19.3-16 6.4-17.7 24.8-46.5 18.4m-227.2 29c0-17-3.2-37.7 12.8-44-28-14.5-34.3 38.3-12 44m-107-21.7c4-4.8-1.7-11.2-3.3-16H268c-4 5.6.7 15.2 8 15.2m-86.5 0c5.6-3.2 12-4.8 10.4-14.4-9-.7-11.3 5-10.5 14.5m15.2 0c8 3.2 9.6-12 3.2-11.2-1 3.2-3.3 5.6-3.3 11.2m17.6 9.6c4-4.7 5.6-12 4.8-20.7-10.3-2.4-12 16.8-4 20m16 .8c5.7 0 9-19 0-18.3-2.3 3.2-5.5 16 0 18.4m24-2.3c5-2.4 1.7-9.6 1-14.4-4 0-5-2.4-9.7-1.6 2.4 5.6.8 13.6 8 15.2M404 455c6.3 1.7 16.7 5.7 23 1.7-7-10.4-21.5-14.4-20-33.6-16 0-8 26.5-2.3 33m20.8-25c2.4 19.3 28 17.7 35.2 2.5-18.4 6.4-27.2-15.2-35.2-3.2m-190.4 28c-22.3-1.6-31-28-52-17.6-4 4-8 8.8-6.3 18.4 2.4 4 8.8 3.3 16 3.3 1.6-3.2-.8-12 4.8-12.8 16 21.6 44.8 22.4 73.6 11.2 5 1.6 8 7.2 17 4.8 4-35.2-31.3-6.4-53.7-8m59.2 32.8c-22.4 5.6-40-16-70.4-12.8-23 2.4-34.3 13.6-56 8.8-6.3-.8-5.5-8-14.3-6.4 1.6 16.7 18.4 19 37.6 16 14.4-2.5 28-9.7 44.8-9.7 20 .8 34.5 9.6 51.3 14.4 6.4-2.4 12-5.6 21.6-6.4 7-8.8 14.3-23.2 6.3-37.6l-4.8-1.6c0 17-4.8 32-17.6 35.3M189.4 508c17.6 6.3 38.4-3.3 57.6 0 10.5 2.3 18.5 12 28 6.3-11-22.4-67-21.6-85.5-5.6m139.2-6.4c4.8 34.4 88.8 39.2 94.4 1.6-24.7 8.7-43-2.5-62.3 6.3-4-3.2-7.2-7.2-9.6 0-.7-8.8-13.5-12-22.3-8m388.8 3.2c-12-3.2-11.2 7.2-16.8 11.2-16-4-11.2 12-24 7.2-2.4 4 4 5.5 0 6.3L667 524c-15 14.3-30.3-1.7-50.3 1.5 1.6-10.4-6.4-5.6-9.6-3.2-8-6.4-14.3-14.4-24.7-17.6 7.2 59.2 126.4 54.4 134.4-.8m-476 63c10.4-6.3 14.4-20.7 16.8-36-18.4-4.7-16.8 19.3-17.6 36m-14.5-18.3c-8 4-9.6 7.2-17.6 9.6-5.7-5.6-13-5.6-24-8.8-12 37.6 53.5 34.4 42.3 0M328.7 568H319c0 4-1.5 7-4.7 8-3.2-4-10.4 0-16.8 2.3-.8-8-12-7.2-15.2-3.2-2.4-9.5-7.2-6.3-14.4-11-18.5 40 69.5 46.3 61.5 4m295.2 62.3c8-20.8.8-52.8-16-59.2 8 17.7-1.6 51.3 16 59.3m85.6-43.2c-24 14.5-45.6 9-72 0-.8 39.3 77.6 38.5 72.8 0m-552.7 8c4 0 6.4-.7 6.4-4.7l-4.8-1.6-1.7 6.4m-5.6 8c8 9.7 41.6 9.7 55.2 4-12-7-44-16-55.3-4.7M593.5 619c4 4 7.2 6.5 14.4 4 0-3 0-7 1.5-8.7-5.6-4.8-14.4-3.2-16 4.8m-351.2-1.5c0 3.2-2.4 4.8-.8 8.8 20-5.6 51.2 14.4 62.4-4.8-18.5-4-37.7-6.4-61-4.8M641.6 644v8c21.6-1 55.2 18.3 67.2 3-19.2-5.5-46.4-12-67.2-11"/>
</svg>
