<?xml version="1.0" encoding="utf-8"?>
<!-- Generator: Adobe Illustrator 15.0.0, SVG Export Plug-In . SVG Version: 6.00 Build 0)  -->
<!DOCTYPE svg PUBLIC "-//W3C//DTD SVG 1.1//EN" "http://www.w3.org/Graphics/SVG/1.1/DTD/svg11.dtd">
<svg version="1.1" id="Layer_1" xmlns="http://www.w3.org/2000/svg" xmlns:xlink="http://www.w3.org/1999/xlink" x="0px" y="0px"
	 width="800px" height="800px" viewBox="0 0 800 800" enable-background="new 0 0 800 800" xml:space="preserve">
<path fill="#FF0000" d="M767.474,269.075v24.274h-265.01v179.12c42.927-44.975,82.394-98.975,111.06-163.42l113.013,49.454
	c-45.118,101.451-116.872,192.547-213.269,270.75c-3.611,2.929-7.208,5.789-10.804,8.619v18.483c0,2.89,0.349,4.674,0.586,5.437
	c2.073,1.505,10.56,5.041,26.84,5.041c5.104,0,10.973-0.348,17.649-1.214c55.98-7.254,117.173-43.238,142.343-83.702l40.779,24.965
	C768.259,546.918,790,475.998,790,400C790,354.071,782.055,309.998,767.474,269.075z M541.436,170.806
	c-36.721-25.448-75.795-50.022-94.283-61.218l53.258-86.533C468.372,14.543,434.717,10,400,10c-13.876,0-27.581,0.73-41.083,2.144
	c0.252,31.477,0.358,88.933-4.495,158.662H541.436z M715.578,170.806c-9.428-12.959-19.636-25.314-30.552-36.999l-34.146,36.999
	H715.578z M550.109,685.454c-7.055,0.916-13.858,1.38-20.22,1.38c-16.769,0-30.833-3.228-38.587-8.854
	c-3.491-2.533-6.069-6.127-7.351-10.246c-0.987-3.175-1.488-7.003-1.488-11.377v-18.483c0-6.131,2.812-11.924,7.63-15.716
	c3.934-3.096,7.394-5.856,10.576-8.438c88.085-71.46,154.992-153.833,199.121-245.088l-76.406-33.435
	c-26.353,53.867-62.098,104.61-106.453,151.082c-3.85,4.033-9.109,6.192-14.473,6.192c-2.499,0-5.021-0.469-7.433-1.436
	c-7.588-3.04-12.562-10.392-12.562-18.565V293.35c0-11.046,8.954-20,20-20h245.01v-50.622c-5.599-10.951-11.702-21.6-18.274-31.922
	H650.88c-7.943,0-15.134-4.701-18.32-11.978c-3.187-7.277-1.765-15.749,3.623-21.586l24.14-26.157
	C616.284,94.968,549.15,51.952,518.06,32.536l-43.401,70.518c20.475,12.801,49.985,31.783,78.169,51.314
	c7.189,4.982,10.308,14.058,7.697,22.406s-10.342,14.032-19.089,14.032H354.423c-5.545,0-10.842-2.302-14.625-6.357
	c-3.783-4.055-5.712-9.499-5.327-15.031c4.2-60.351,4.646-111.463,4.525-144.185l-48.817,0.45
	c-11.808,3.459-23.383,7.46-34.698,11.978c-0.055,33.097-0.9,80.203-4.973,134.638c-0.781,10.438-9.478,18.508-19.944,18.508H70.8
	c-2.607,4.094-5.138,8.24-7.595,12.436v70.108h153.062c5.868,0,11.439,2.577,15.239,7.048c3.8,4.471,5.445,10.385,4.499,16.176
	c-4.254,26.049-9.243,51.247-14.826,74.894c-27.253,115.426-70.251,205.441-128.29,268.938c17.43,22.234,37.221,42.53,58.997,60.507
	c69.021-74.454,119.466-178.04,150.498-309.483c7.466-31.619,13.907-65.602,19.142-101.005c1.451-9.809,9.869-17.074,19.785-17.074
	h37.622c11.046,0,20,8.954,20,20v282.778c0,6.611-3.267,12.795-8.728,16.521c-42.758,29.174-82.146,50.839-111.003,66.221
	l39.3,72.829c17.845-9.505,38.83-20.902,62.411-34.941c3.126-1.861,6.667-2.815,10.232-2.815c1.972,0,3.952,0.292,5.876,0.883
	c5.401,1.66,9.848,5.528,12.241,10.647c13.174,28.179,38.078,48.121,72.021,57.67c13.479,3.795,28.44,5.836,44.499,6.126
	c79.096-26.935,146.762-78.568,193.813-145.708l-24.479-14.986C662.672,647.18,605.004,678.341,550.109,685.454z M235.444,46.315
	c-60.322,28.113-112.255,71.204-151.022,124.491h146.143C234.234,121.751,235.251,78.416,235.444,46.315z M391.145,713.941
	c-29.248,17.413-54.921,31.013-74.675,41.478l-6.136,3.257l-58.297-108.034l6.253-3.315c29.257-15.493,72.844-38.584,120.644-71.198
	V293.35h-37.622c-4.985,33.71-11.342,68.29-19.462,102.675c-31.681,134.19-83.336,240.38-154.138,317.275
	C232.598,761.487,312.968,790,400,790c26.132,0,51.661-2.577,76.354-7.479c-0.16-0.045-0.326-0.082-0.486-0.127
	C435.896,771.149,406.539,746.87,391.145,713.941z M216.267,293.35H43.206v-51.048C21.862,290.521,10,343.874,10,400
	c0,83.376,26.169,160.638,70.734,224.03c54.395-60.79,94.937-146.855,120.98-257.159C207.49,342.409,212.283,317.741,216.267,293.35
	z"/>
<path display="none" fill="#FFEB00" d="M689.882,581.918c-25.17,40.464-86.362,76.448-142.343,83.702
	c-27.978,3.631-41.766-1.851-44.489-3.827c-0.237-0.763-0.586-2.547-0.586-5.437v-18.483c3.596-2.83,7.192-5.69,10.804-8.619
	c96.396-78.203,168.15-169.299,213.269-270.75L613.523,309.05c-28.666,64.445-68.133,118.445-111.06,163.42V293.35h265.01V170.806
	H650.88l38.189-41.38C633.832,79.262,516.49,8.001,511.522,5l-64.37,104.588c18.488,11.196,57.562,35.771,94.283,61.218H354.423
	c5.242-75.33,4.698-136.36,4.434-165.757L235.334,6.188c0.259,28.781,0.805,90.106-4.77,164.619H43.206V293.35h173.062
	c-3.984,24.391-8.777,49.06-14.553,73.522C164.744,523.454,98.56,631.2,5,687.123L67.737,795h0.005
	c123.54-73.833,209.036-208.07,254.107-398.975c8.12-34.385,14.477-68.965,19.462-102.675h37.622v282.778
	c-47.8,32.614-91.387,55.705-120.644,71.198l-6.253,3.315l58.297,108.034l6.136-3.257c19.754-10.465,45.427-24.064,74.675-41.478
	c15.394,32.929,44.751,57.208,84.722,68.453c16.497,4.645,34.652,6.932,53.847,6.932h0.002c37.479,0,78.921-8.737,119.603-25.668
	C712.571,737.299,764.311,695.613,795,646.272L689.882,581.918z"/>
</svg>
