<?xml version="1.0" encoding="utf-8"?>
<!-- Generator: Adobe Illustrator 15.0.0, SVG Export Plug-In . SVG Version: 6.00 Build 0)  -->
<!DOCTYPE svg PUBLIC "-//W3C//DTD SVG 1.1//EN" "http://www.w3.org/Graphics/SVG/1.1/DTD/svg11.dtd">
<svg version="1.1" id="Layer_1" xmlns="http://www.w3.org/2000/svg" xmlns:xlink="http://www.w3.org/1999/xlink" x="0px" y="0px"
	 width="800px" height="800px" viewBox="0 0 800 800" enable-background="new 0 0 800 800" xml:space="preserve">
<path fill="#FF0000" d="M685.026,133.808l-34.146,36.999h64.698C706.15,157.847,695.942,145.492,685.026,133.808z M767.474,269.075
	v24.274h-265.01v179.12c42.927-44.975,82.394-98.975,111.06-163.42l113.013,49.454c-45.118,101.451-116.872,192.547-213.269,270.75
	c-3.611,2.929-7.208,5.789-10.804,8.619v18.483c0,2.89,0.349,4.674,0.586,5.437c2.073,1.505,10.56,5.041,26.84,5.041
	c5.104,0,10.973-0.348,17.649-1.214c55.98-7.254,117.173-43.238,142.343-83.702l40.779,24.965C768.259,546.918,790,475.998,790,400
	C790,354.071,782.055,309.998,767.474,269.075z M552.68,705.289c-7.901,1.024-15.571,1.545-22.79,1.545
	c-21.201,0-39.077-4.499-50.333-12.667c-6.983-5.067-12.141-12.258-14.703-20.497c-1.586-5.1-2.39-10.925-2.39-17.313v-18.483
	c0-12.263,5.625-23.848,15.261-31.432c3.851-3.031,7.235-5.731,10.349-8.256c79.747-64.695,141.613-138.457,184.346-219.701
	l-39.786-17.411c-26.228,49.361-60.168,95.988-101.233,139.014c-7.699,8.065-18.219,12.383-28.944,12.383
	c-5,0-10.042-0.937-14.867-2.87c-15.176-6.079-25.124-20.782-25.124-37.131V293.35c0-22.091,17.909-40,40-40h225.01v-42.543H650.88
	c-15.887,0-30.269-9.402-36.641-23.955c-6.373-14.553-3.529-31.499,7.246-43.173l9.51-10.305
	c-34.457-26.379-77.31-54.561-106.498-73.14l-22.446,36.471c18.503,11.807,40.719,26.36,62.169,41.225
	c14.378,9.964,20.613,28.116,15.394,44.813c-5.22,16.696-20.685,28.064-38.178,28.064H354.423c-11.091,0-21.684-4.605-29.25-12.715
	c-7.565-8.11-11.424-18.997-10.654-30.062c3.374-48.479,4.299-90.982,4.464-122.611l-43.53,0.401
	c-0.181,32.808-1.204,77.222-5,127.971c-1.562,20.875-18.955,37.016-39.889,37.016H83.206v42.543h133.062
	c11.735,0,22.879,5.153,30.479,14.096c7.6,8.942,10.89,20.771,8.998,32.353c-4.33,26.506-9.41,52.166-15.1,76.265
	c-28.345,120.054-73.556,213.748-134.887,279.91c9.732,11.179,20.092,21.796,31.023,31.8
	c66.876-71.94,115.856-172.67,146.14-300.938c7.337-31.072,13.669-64.493,18.822-99.335c2.901-19.618,19.738-34.149,39.57-34.149
	h37.622c22.092,0,40,17.909,40,40v282.778c0,13.222-6.533,25.59-17.455,33.042c-35.376,24.137-68.361,43.162-95.173,57.81
	l20.311,37.641c13.396-7.299,28.151-15.574,44.066-25.049c6.252-3.722,13.332-5.63,20.464-5.63c3.945,0,7.905,0.583,11.752,1.766
	c10.803,3.321,19.696,11.057,24.482,21.294c10.635,22.749,31.147,38.963,59.319,46.889c12.816,3.608,27.286,5.437,43.014,5.437
	c18.447,0,37.97-2.494,57.866-7.325c46.672-25.652,87.524-60.579,120.077-102.301l-9.085-5.562
	C661.856,670.332,605.971,698.383,552.68,705.289z M541.436,170.806c-36.721-25.448-75.795-50.022-94.283-61.218l53.258-86.533
	C468.372,14.543,434.717,10,400,10c-13.876,0-27.581,0.73-41.083,2.144c0.252,31.477,0.358,88.933-4.495,158.662H541.436z
	 M391.145,713.941c-29.248,17.413-54.921,31.013-74.675,41.478l-6.136,3.257l-58.297-108.034l6.253-3.315
	c29.257-15.493,72.844-38.584,120.644-71.198V293.35h-37.622c-4.985,33.71-11.342,68.29-19.462,102.675
	c-31.681,134.19-83.336,240.38-154.138,317.275C232.598,761.487,312.968,790,400,790c26.132,0,51.661-2.577,76.354-7.479
	c-0.16-0.045-0.326-0.082-0.486-0.127C435.896,771.149,406.539,746.87,391.145,713.941z M235.444,46.315
	c-60.322,28.113-112.255,71.204-151.022,124.491h146.143C234.234,121.751,235.251,78.416,235.444,46.315z M216.267,293.35H43.206
	v-51.048C21.862,290.521,10,343.874,10,400c0,83.376,26.169,160.638,70.734,224.03c54.395-60.79,94.937-146.855,120.98-257.159
	C207.49,342.409,212.283,317.741,216.267,293.35z"/>
<path display="none" fill="#FFEB00" d="M698.572,634.139c-36.716,36.193-92.602,64.244-145.893,71.15
	c-7.901,1.024-15.571,1.545-22.79,1.545c-21.201,0-39.077-4.499-50.333-12.667c-6.983-5.067-12.141-12.258-14.703-20.497
	c-1.586-5.1-2.39-10.925-2.39-17.313v-18.483c0-12.263,5.625-23.848,15.261-31.432c3.851-3.031,7.235-5.731,10.349-8.256
	c79.747-64.695,141.613-138.457,184.346-219.701l-39.786-17.411c-26.228,49.361-60.168,95.988-101.233,139.014
	c-7.699,8.065-18.219,12.383-28.944,12.383c-5,0-10.042-0.937-14.867-2.87c-15.176-6.079-25.124-20.782-25.124-37.131V293.35
	c0-22.091,17.909-40,40-40h225.01v-42.543H650.88c-15.887,0-30.269-9.402-36.641-23.955c-6.373-14.553-3.529-31.499,7.246-43.173
	l9.51-10.305c-34.457-26.379-77.31-54.561-106.498-73.14l-22.446,36.471c18.503,11.807,40.719,26.36,62.169,41.225
	c14.378,9.964,20.613,28.116,15.394,44.813c-5.22,16.696-20.685,28.064-38.178,28.064H354.423c-11.091,0-21.684-4.605-29.25-12.715
	c-7.565-8.11-11.424-18.997-10.654-30.062c3.374-48.479,4.299-90.982,4.464-122.611l-43.53,0.401
	c-0.181,32.808-1.204,77.222-5,127.971c-1.562,20.875-18.955,37.016-39.889,37.016H83.206v42.543h133.062
	c11.735,0,22.879,5.153,30.479,14.096c7.6,8.942,10.89,20.771,8.998,32.353c-4.33,26.506-9.41,52.166-15.1,76.265
	c-35.218,149.164-96.464,257.644-182.329,323.17l22.601,38.862c95.97-71.663,163.835-189.594,202.004-351.262
	c7.337-31.072,13.669-64.493,18.822-99.335c2.901-19.618,19.738-34.149,39.57-34.149h37.622c22.092,0,40,17.909,40,40v282.778
	c0,13.222-6.533,25.59-17.455,33.042c-35.376,24.137-68.361,43.162-95.173,57.81l20.311,37.641
	c13.396-7.299,28.151-15.574,44.066-25.049c6.252-3.722,13.332-5.63,20.464-5.63c3.945,0,7.905,0.583,11.752,1.766
	c10.803,3.321,19.696,11.057,24.482,21.294c10.635,22.749,31.147,38.963,59.319,46.889c12.816,3.608,27.286,5.437,43.014,5.437
	c32.67,0,68.713-7.814,104.235-22.598c40.917-17.051,76.163-41.085,102.419-69.45L698.572,634.139z M530.541,666.828
	c-0.301,0.002-0.601,0.003-0.896,0.003c0.084,0,0.161,0.003,0.245,0.003C530.103,666.834,530.325,666.83,530.541,666.828z"/>
<path fill="#FFFFFF" stroke="#FFFFFF" stroke-width="2" stroke-miterlimit="10" d="M698.572,634.139
	c-36.716,36.193-92.602,64.244-145.893,71.15c-7.901,1.024-15.571,1.545-22.79,1.545c-21.201,0-39.077-4.499-50.333-12.667
	c-6.983-5.067-12.141-12.258-14.703-20.497c-1.586-5.1-2.39-10.925-2.39-17.313v-18.483c0-12.263,5.625-23.848,15.261-31.432
	c3.851-3.031,7.235-5.731,10.349-8.256c79.747-64.695,141.613-138.457,184.346-219.701l-39.786-17.411
	c-26.228,49.361-60.168,95.988-101.233,139.014c-7.699,8.065-18.219,12.383-28.944,12.383c-5,0-10.042-0.937-14.867-2.87
	c-15.176-6.079-25.124-20.782-25.124-37.131V293.35c0-22.091,17.909-40,40-40h225.01v-42.543H650.88
	c-15.887,0-30.269-9.402-36.641-23.955c-6.373-14.553-3.529-31.499,7.246-43.173l9.51-10.305
	c-34.457-26.379-77.31-54.561-106.498-73.14l-22.446,36.471c18.503,11.807,40.719,26.36,62.169,41.225
	c14.378,9.964,20.613,28.116,15.394,44.813c-5.22,16.696-20.685,28.064-38.178,28.064H354.423c-11.091,0-21.684-4.605-29.25-12.715
	c-7.565-8.11-11.424-18.997-10.654-30.062c3.374-48.479,4.299-90.982,4.464-122.611l-43.53,0.401
	c-0.181,32.808-1.204,77.222-5,127.971c-1.562,20.875-18.955,37.016-39.889,37.016H83.206v42.543h133.062
	c11.735,0,22.879,5.153,30.479,14.096c7.6,8.942,10.89,20.771,8.998,32.353c-4.33,26.506-9.41,52.166-15.1,76.265
	c-35.218,149.164-96.464,257.644-182.329,323.17l22.601,38.862c95.97-71.663,163.835-189.594,202.004-351.262
	c7.337-31.072,13.669-64.493,18.822-99.335c2.901-19.618,19.738-34.149,39.57-34.149h37.622c22.092,0,40,17.909,40,40v282.778
	c0,13.222-6.533,25.59-17.455,33.042c-35.376,24.137-68.361,43.162-95.173,57.81l20.311,37.641
	c13.396-7.299,28.151-15.574,44.066-25.049c6.252-3.722,13.332-5.63,20.464-5.63c3.945,0,7.905,0.583,11.752,1.766
	c10.803,3.321,19.696,11.057,24.482,21.294c10.635,22.749,31.147,38.963,59.319,46.889c12.816,3.608,27.286,5.437,43.014,5.437
	c32.67,0,68.713-7.814,104.235-22.598c40.917-17.051,76.163-41.085,102.419-69.45L698.572,634.139z M530.541,666.828
	c-0.301,0.002-0.601,0.003-0.896,0.003c0.084,0,0.161,0.003,0.245,0.003C530.103,666.834,530.325,666.83,530.541,666.828z"/>
</svg>
