<svg class="lon noselect" xmlns="http://www.w3.org/2000/svg" viewBox="-0.823 -0.125 501 501">

      <path d="M39.707 500L0 431.723c59.215-35.393 101.104-103.586 124.502-202.69c22.473-95.179 21.575-195.361 21.279-228.282 l78.18-0.721c0.317 35.33 1.28 142.822-23.423 247.454C172.011 368.31 117.9 453.27 39.71 500z"></path>
      <rect x="24.18" y="104.94" width="458.4" height="77.56"></rect>
      <path d="M332.097 496.41c-12.148 0-23.637-1.448-34.079-4.386c-38.416-10.81-61.351-40.632-61.351-79.774V106.875h78.184V412.25 c0 1.83 0.22 2.96 0.37 3.443c1.726 1.25 10.45 4.72 28.16 2.421c35.43-4.591 74.159-27.365 90.089-52.975L500 405.87 c-19.423 31.226-52.168 57.61-92.204 74.292C382.049 490.88 355.82 496.41 332.1 496.41z"></path>
      <path d="M193.249 477.01l-36.896-68.376l3.958-2.098c50.732-26.868 169.539-89.786 224.829-214.099l71.53 31.3 c-28.558 64.21-73.972 121.864-134.981 171.362c-49.281 39.983-96.402 64.938-124.557 79.849L193.249 477.01z"></path>
      <path d="M380.161 135.954c-24.427-22.181-80.696-57.877-100.316-69.76L320.584 0c3.144 1.9 77.41 47 112.37 78.75 L380.161 135.954z"></path>
    </svg>
