<?xml version="1.0" encoding="utf-8"?>
<!-- Generator: Adobe Illustrator 15.0.0, SVG Export Plug-In . SVG Version: 6.00 Build 0)  -->
<!DOCTYPE svg PUBLIC "-//W3C//DTD SVG 1.1//EN" "http://www.w3.org/Graphics/SVG/1.1/DTD/svg11.dtd">
<svg version="1.1" id="Layer_1" xmlns="http://www.w3.org/2000/svg" xmlns:xlink="http://www.w3.org/1999/xlink" x="0px" y="0px"
	 width="800px" height="800px" viewBox="0 0 800 800" enable-background="new 0 0 800 800" xml:space="preserve">
<circle fill="#FF0000" cx="400" cy="400" r="400"/>
<path fill="#FFEB00" d="M80.354,780L20,676.219c90.006-53.798,153.678-157.451,189.244-308.089
	c34.158-144.672,32.794-296.948,32.344-346.988l118.833-1.097c0.482,53.702,1.946,217.089-35.602,376.13
	C281.457,579.831,199.208,708.971,80.359,780H80.354z"/>
<rect x="56.753" y="179.509" fill="#FFEB00" width="696.767" height="117.891"/>
<path fill="#FFEB00" d="M524.788,774.543c-18.465,0-35.929-2.2-51.801-6.666c-58.393-16.432-93.254-61.76-93.254-121.257V182.45
	h118.841v464.17c0,2.781,0.334,4.499,0.562,5.232c2.622,1.9,15.885,7.175,42.803,3.681c53.854-6.979,112.723-41.594,136.937-80.522
	L780,636.922c-29.522,47.465-79.296,87.567-140.15,112.926c-39.135,16.29-79.003,24.695-115.059,24.695H524.788z"/>
<path fill="#FFEB00" d="M313.738,745.056l-56.082-103.932l6.016-3.189c77.113-40.839,257.699-136.475,341.741-325.431
	l108.726,47.576c-43.408,97.6-112.438,185.234-205.172,260.47c-74.906,60.774-146.531,98.707-189.326,121.372L313.738,745.056z"/>
<path fill="#FFEB00" d="M597.846,226.65c-37.131-33.715-122.659-87.973-152.482-106.035L507.288,20
	c4.778,2.888,117.664,71.44,170.803,119.7L597.846,226.65z"/>
</svg>
