<?xml version="1.0" standalone="no"?>
<!DOCTYPE svg PUBLIC "-//W3C//DTD SVG 20010904//EN"
 "http://www.w3.org/TR/2001/REC-SVG-20010904/DTD/svg10.dtd">
<svg version="1.0" xmlns="http://www.w3.org/2000/svg"
 width="800.000000pt" height="800.000000pt" viewBox="0 0 800.000000 800.000000"
 preserveAspectRatio="xMidYMid meet">
<metadata>
Created by potrace 1.11, written by Peter Selinger 2001-2013
</metadata>
<g transform="translate(0.000000,800.000000) scale(0.100000,-0.100000)"
fill="#000000" stroke="none">
<path d="M3807 7894 c-1 -1 -44 -5 -96 -9 -51 -3 -99 -9 -106 -11 -10 -4 -13
-77 -13 -322 -1 -394 -7 -606 -28 -992 -4 -69 -7 -159 -8 -200 l-1 -75 928 0
c510 0 927 3 927 7 0 11 -502 342 -770 508 -74 46 -140 88 -147 94 -9 8 12 48
83 161 52 83 97 156 101 164 3 7 51 86 106 175 55 88 129 208 164 266 l64 105
-28 7 c-15 5 -37 10 -48 12 -11 3 -63 14 -115 26 -52 12 -104 23 -115 25 -11
1 -49 7 -85 13 -207 33 -351 44 -613 46 -109 1 -199 1 -200 0z"/>
<path d="M2750 7496 c-3 -471 -37 -1183 -61 -1294 -29 -134 -121 -236 -255
-283 -58 -21 -72 -21 -831 -22 l-773 0 -1 -51 c-1 -47 0 -305 1 -368 l0 -27
718 -3 717 -3 65 -32 c72 -37 115 -72 159 -133 56 -78 80 -199 60 -307 -6 -26
-12 -64 -15 -83 -6 -40 -7 -45 -29 -160 -36 -191 -78 -391 -102 -485 -14 -55
-26 -107 -28 -115 -72 -334 -266 -913 -435 -1300 -68 -154 -218 -455 -249
-499 -10 -14 -20 -30 -21 -36 -2 -5 -8 -19 -15 -30 -86 -143 -120 -198 -189
-300 -83 -125 -252 -345 -339 -443 -100 -112 -354 -359 -450 -436 -66 -52 -96
-83 -93 -93 7 -18 215 -375 225 -385 15 -17 273 202 466 396 206 206 369 403
537 646 68 98 208 317 208 325 0 3 13 26 29 52 64 104 181 333 282 551 109
235 294 738 379 1037 56 195 160 602 177 695 2 14 17 88 33 165 16 77 31 154
34 170 9 57 36 210 41 235 2 13 7 42 10 65 16 108 37 218 50 254 32 91 105
170 200 215 73 34 101 37 366 37 229 0 237 -1 306 -26 120 -45 209 -142 244
-265 17 -62 21 -2929 4 -3005 -30 -128 -83 -192 -255 -306 -247 -163 -729
-452 -832 -500 -16 -7 -28 -17 -28 -22 0 -15 203 -387 212 -387 4 0 30 13 58
30 28 16 52 30 54 30 2 0 75 41 162 92 88 50 180 101 205 114 192 95 418 11
524 -195 112 -219 279 -357 539 -447 147 -51 282 -69 506 -68 208 0 330 15
560 70 442 105 884 322 1235 605 95 77 265 237 265 250 0 4 -46 35 -102 69
-57 35 -142 87 -189 116 -80 50 -119 65 -119 47 0 -11 -150 -140 -227 -197
-109 -80 -378 -246 -398 -246 -1 0 -45 -20 -96 -44 -198 -92 -456 -174 -638
-201 -20 -3 -46 -7 -56 -9 -84 -16 -336 -24 -391 -12 -12 2 -45 7 -74 11 -183
23 -345 126 -405 258 -38 83 -44 131 -42 317 2 159 5 180 27 234 28 70 88 134
245 261 287 233 583 510 810 759 50 55 99 109 110 120 11 12 45 51 75 86 30
36 57 67 60 70 3 3 21 25 40 50 19 25 37 47 40 50 3 3 21 25 40 50 19 25 40
52 47 60 53 66 193 262 277 390 135 204 334 545 324 555 -2 2 -96 44 -208 93
l-204 90 -24 -47 c-196 -371 -560 -884 -862 -1212 -199 -217 -273 -261 -418
-254 -88 4 -117 11 -176 43 -70 38 -130 102 -168 180 l-33 67 0 990 0 990 31
65 c52 109 137 183 249 215 51 15 166 17 1211 17 l1154 0 0 223 0 222 -412 1
c-227 0 -426 2 -441 5 -54 11 -152 64 -191 103 -76 76 -115 162 -120 262 -6
116 31 203 132 316 l71 78 -27 22 c-164 133 -1020 716 -1052 716 -4 0 -60 -84
-123 -187 l-115 -186 327 -217 c179 -120 343 -235 363 -256 39 -42 80 -116 96
-177 14 -49 9 -160 -9 -215 -36 -111 -138 -208 -253 -244 -68 -21 -78 -21
-1060 -21 -970 0 -992 1 -1048 21 -116 41 -195 118 -241 232 -25 62 -26 72
-22 200 3 74 7 164 10 200 12 163 25 543 29 838 l2 162 -228 -1 -228 -1 0 -52z"/>
<path d="M2235 7473 c-60 -30 -122 -64 -137 -74 -14 -11 -29 -19 -33 -19 -12
0 -219 -133 -325 -209 -104 -74 -272 -208 -340 -270 -149 -138 -322 -319 -412
-431 -62 -78 -138 -178 -138 -182 0 -9 1460 -2 1461 7 6 45 19 251 25 375 3
69 7 150 9 180 9 146 16 680 9 680 -5 0 -58 -26 -119 -57z"/>
<path d="M6794 6593 c-34 -38 -85 -92 -113 -122 -94 -99 -156 -172 -154 -179
4 -8 623 -10 628 -1 5 6 -178 235 -252 317 l-48 52 -61 -67z"/>
<path d="M414 5523 c-114 -270 -186 -510 -249 -833 -3 -14 -8 -45 -11 -70 -3
-25 -7 -52 -9 -60 -8 -29 -25 -196 -32 -310 -12 -200 -6 -567 11 -670 3 -14 7
-47 10 -75 3 -27 8 -59 10 -70 2 -11 7 -42 10 -68 4 -27 9 -59 12 -70 104
-551 298 -1026 607 -1489 34 -50 36 -52 52 -40 13 9 123 142 191 232 255 331
513 813 699 1305 77 204 213 627 240 745 1 8 8 35 15 60 7 25 14 52 15 60 2 8
19 80 38 160 40 165 55 234 62 270 3 14 7 36 10 50 9 40 14 69 30 160 8 47 17
96 20 110 3 14 8 41 10 60 3 19 8 45 10 58 4 16 1 22 -12 23 -10 0 -399 1
-865 1 -611 1 -848 4 -849 12 0 6 -1 118 -1 249 0 130 -2 237 -4 237 -2 0 -11
-17 -20 -37z"/>
<path d="M7679 5285 c0 -11 -1 -65 -1 -121 l0 -101 -1319 0 c-726 0 -1322 -3
-1325 -6 -5 -4 -9 -1718 -5 -1781 1 -5 19 11 42 35 22 24 60 65 83 90 162 176
408 492 547 704 154 233 320 528 395 699 47 109 12 113 350 -35 164 -72 313
-137 329 -144 17 -8 123 -55 237 -104 114 -50 219 -96 233 -103 l25 -14 -104
-209 c-181 -367 -362 -667 -595 -990 -82 -113 -155 -210 -212 -280 -228 -278
-329 -390 -565 -628 -104 -105 -254 -248 -330 -314 -32 -28 -71 -62 -85 -75
-44 -40 -131 -113 -219 -184 -145 -118 -132 -95 -131 -224 1 -64 6 -119 12
-126 36 -43 329 -61 485 -30 12 2 37 7 55 10 78 12 225 52 324 89 393 143 743
384 940 647 26 36 51 69 55 73 7 7 113 -54 322 -185 43 -26 82 -48 87 -48 25
0 238 412 321 620 93 234 195 593 216 760 2 19 8 58 14 85 5 28 12 77 16 110
3 33 8 69 10 80 23 122 22 620 -1 820 -18 154 -20 169 -35 255 -24 136 -39
205 -71 326 -38 145 -98 325 -100 299z"/>
<path d="M3442 5062 c-26 -4 -29 -9 -36 -67 -4 -38 -21 -140 -31 -195 -2 -14
-11 -68 -20 -120 -13 -77 -66 -351 -80 -410 -67 -302 -125 -534 -189 -755 -15
-49 -31 -101 -36 -115 -4 -14 -27 -86 -51 -160 -66 -214 -195 -552 -305 -800
-52 -118 -220 -453 -268 -533 -25 -43 -46 -81 -46 -83 0 -2 -32 -57 -72 -121
-160 -261 -337 -505 -526 -725 l-101 -117 82 -59 c274 -193 573 -350 900 -471
108 -40 395 -126 454 -136 18 -3 63 -12 100 -21 38 -9 79 -17 93 -19 14 -2 52
-8 85 -14 33 -5 87 -13 120 -17 33 -3 69 -8 80 -10 121 -23 651 -22 840 2 47
6 243 35 265 39 8 2 26 4 39 4 37 1 15 15 -74 45 -307 106 -573 326 -716 592
l-33 62 -27 -17 c-75 -44 -310 -178 -359 -204 -30 -16 -73 -40 -95 -52 -22
-12 -76 -42 -120 -65 -44 -23 -108 -58 -142 -76 l-62 -33 -29 52 c-26 45 -111
202 -275 507 -22 41 -52 98 -67 125 -15 28 -45 84 -68 125 -22 41 -63 117 -91
169 -28 52 -48 98 -44 102 5 4 51 29 103 57 86 45 207 110 360 195 204 112
733 436 790 484 6 6 7 2823 0 2831 -5 7 -305 10 -348 4z"/>
</g>
</svg>
